<svg xmlns="http://www.w3.org/2000/svg" viewBox="0 0 24 30" x="0px" y="0px"><title>computer-emoticon-smiley-emoji-cute</title><g data-name="Layer 33"><path d="M10,10a1,1,0,0,1-.71-.29L8,8.41,6.71,9.71A1,1,0,0,1,5.29,8.29l2-2a1,1,0,0,1,1.42,0l2,2a1,1,0,0,1,0,1.42A1,1,0,0,1,10,10Z"/><path d="M18,10a1,1,0,0,1-.71-.29L16,8.41l-1.29,1.3a1,1,0,0,1-1.42-1.42l2-2a1,1,0,0,1,1.42,0l2,2a1,1,0,0,1,0,1.42A1,1,0,0,1,18,10Z"/><path d="M15,23H9a1,1,0,0,1-1-1V18h2v3h4V18h2v4A1,1,0,0,1,15,23Z"/><path d="M22,19H2a1,1,0,0,1-1-1V2A1,1,0,0,1,2,1H22a1,1,0,0,1,1,1V18A1,1,0,0,1,22,19ZM3,17H21V3H3Z"/><path d="M18,23H6a1,1,0,0,1,0-2H18a1,1,0,0,1,0,2Z"/></g><text x="0" y="39" fill="#000000" font-size="5px" font-weight="bold" font-family="'Helvetica Neue', Helvetica, Arial-Unicode, Arial, Sans-serif">Created by DailyYouth</text><text x="0" y="44" fill="#000000" font-size="5px" font-weight="bold" font-family="'Helvetica Neue', Helvetica, Arial-Unicode, Arial, Sans-serif">from the Noun Project</text></svg>